<svg width="129" height="50" viewBox="0 0 129 50" fill="none" xmlns="http://www.w3.org/2000/svg">
    <path d="M118.657 41.6293V9.14964C118.657 8.9503 118.578 8.75913 118.437 8.61818C118.296 8.47722 118.105 8.39804 117.905 8.39804C117.706 8.39804 117.515 8.47722 117.374 8.61818C117.233 8.75913 117.154 8.9503 117.154 9.14964V41.6293C117.154 41.8287 117.233 42.0198 117.374 42.1608C117.515 42.3017 117.706 42.3809 117.905 42.3809C118.105 42.3809 118.296 42.3017 118.437 42.1608C118.578 42.0198 118.657 41.8287 118.657 41.6293Z" fill="black"/>
    <path d="M114.836 41.6293V9.14964C114.836 8.9503 114.757 8.75913 114.616 8.61818C114.475 8.47722 114.284 8.39804 114.084 8.39804C113.885 8.39804 113.694 8.47722 113.553 8.61818C113.412 8.75913 113.333 8.9503 113.333 9.14964V41.6293C113.333 41.8287 113.412 42.0198 113.553 42.1608C113.694 42.3017 113.885 42.3809 114.084 42.3809C114.284 42.3809 114.475 42.3017 114.616 42.1608C114.757 42.0198 114.836 41.8287 114.836 41.6293Z" fill="black"/>
    <path d="M104.123 42.3809C104.322 42.3809 104.514 42.3017 104.654 42.1608C104.795 42.0198 104.875 41.8287 104.875 41.6293V9.14964C104.875 8.9503 104.795 8.75913 104.654 8.61818C104.514 8.47722 104.322 8.39804 104.123 8.39804C103.924 8.39804 103.733 8.47722 103.592 8.61818C103.451 8.75913 103.371 8.9503 103.371 9.14964V41.6293C103.371 41.8287 103.451 42.0198 103.592 42.1608C103.733 42.3017 103.924 42.3809 104.123 42.3809Z" fill="black"/>
    <path d="M99.5283 42.3809C99.7276 42.3809 99.9188 42.3017 100.06 42.1608C100.201 42.0198 100.28 41.8287 100.28 41.6293V9.14964C100.28 8.9503 100.201 8.75913 100.06 8.61818C99.9188 8.47722 99.7276 8.39804 99.5283 8.39804C99.329 8.39804 99.1378 8.47722 98.9968 8.61818C98.8559 8.75913 98.7767 8.9503 98.7767 9.14964V41.6293C98.7767 41.8287 98.8559 42.0198 98.9968 42.1608C99.1378 42.3017 99.329 42.3809 99.5283 42.3809Z" fill="black"/>
    <path d="M110.248 42.3809C110.447 42.3809 110.638 42.3017 110.779 42.1608C110.92 42.0198 110.999 41.8287 110.999 41.6293V20.9603C110.999 20.761 110.92 20.5698 110.779 20.4289C110.638 20.2879 110.447 20.2087 110.248 20.2087C110.048 20.2087 109.857 20.2879 109.716 20.4289C109.575 20.5698 109.496 20.761 109.496 20.9603V41.6293C109.496 41.8287 109.575 42.0198 109.716 42.1608C109.857 42.3017 110.048 42.3809 110.248 42.3809Z" fill="black"/>
    <path d="M85.0034 9.14964V41.6293C85.0034 41.8287 85.0826 42.0198 85.2235 42.1608C85.3645 42.3017 85.5557 42.3809 85.755 42.3809C85.9543 42.3809 86.1455 42.3017 86.2865 42.1608C86.4274 42.0198 86.5066 41.8287 86.5066 41.6293V9.14964C86.5066 8.9503 86.4274 8.75913 86.2865 8.61818C86.1455 8.47722 85.9543 8.39804 85.755 8.39804C85.5557 8.39804 85.3645 8.47722 85.2235 8.61818C85.0826 8.75913 85.0034 8.9503 85.0034 9.14964Z" fill="black"/>
    <path d="M88.8292 9.14964V41.6293C88.8292 41.8287 88.9084 42.0198 89.0493 42.1608C89.1903 42.3017 89.3815 42.3809 89.5808 42.3809C89.7801 42.3809 89.9713 42.3017 90.1123 42.1608C90.2532 42.0198 90.3324 41.8287 90.3324 41.6293V9.14964C90.3324 8.9503 90.2532 8.75913 90.1123 8.61818C89.9713 8.47722 89.7801 8.39804 89.5808 8.39804C89.3815 8.39804 89.1903 8.47722 89.0493 8.61818C88.9084 8.75913 88.8292 8.9503 88.8292 9.14964Z" fill="black"/>
    <path d="M93.4101 42.3809C93.6095 42.3809 93.8007 42.3017 93.9416 42.1608C94.0826 42.0198 94.1617 41.8287 94.1617 41.6293V20.9603C94.1617 20.761 94.0826 20.5698 93.9416 20.4289C93.8007 20.2879 93.6095 20.2087 93.4101 20.2087C93.2108 20.2087 93.0196 20.2879 92.8787 20.4289C92.7377 20.5698 92.6585 20.761 92.6585 20.9603V41.6293C92.6585 41.8287 92.7377 42.0198 92.8787 42.1608C93.0196 42.3017 93.2108 42.3809 93.4101 42.3809Z" fill="black"/>
    <path d="M81.5884 41.6293V9.14964C81.5884 8.9503 81.5092 8.75913 81.3682 8.61818C81.2273 8.47722 81.0361 8.39804 80.8368 8.39804C80.6374 8.39804 80.4463 8.47722 80.3053 8.61818C80.1644 8.75913 80.0852 8.9503 80.0852 9.14964V41.6293C80.0852 41.8287 80.1644 42.0198 80.3053 42.1608C80.4463 42.3017 80.6374 42.3809 80.8368 42.3809C81.0361 42.3809 81.2273 42.3017 81.3682 42.1608C81.5092 42.0198 81.5884 41.8287 81.5884 41.6293Z" fill="black"/>
    <path d="M77.7653 41.6293V9.14964C77.7653 8.9503 77.6861 8.75913 77.5451 8.61818C77.4042 8.47722 77.213 8.39804 77.0137 8.39804C76.8143 8.39804 76.6232 8.47722 76.4822 8.61818C76.3412 8.75913 76.2621 8.9503 76.2621 9.14964V41.6293C76.2621 41.8287 76.3412 42.0198 76.4822 42.1608C76.6232 42.3017 76.8143 42.3809 77.0137 42.3809C77.213 42.3809 77.4042 42.3017 77.5451 42.1608C77.6861 42.0198 77.7653 41.8287 77.7653 41.6293Z" fill="black"/>
    <path d="M67.0546 42.3809C67.2539 42.3809 67.4451 42.3017 67.586 42.1608C67.727 42.0198 67.8062 41.8287 67.8062 41.6293V9.14964C67.8062 8.9503 67.727 8.75913 67.586 8.61818C67.4451 8.47722 67.2539 8.39804 67.0546 8.39804C66.8552 8.39804 66.664 8.47722 66.5231 8.61818C66.3821 8.75913 66.303 8.9503 66.303 9.14964V41.6293C66.303 41.8287 66.3821 42.0198 66.5231 42.1608C66.664 42.3017 66.8552 42.3809 67.0546 42.3809Z" fill="black"/>
    <path d="M62.4598 42.3809C62.6592 42.3809 62.8503 42.3017 62.9913 42.1608C63.1322 42.0198 63.2114 41.8287 63.2114 41.6293V9.14964C63.2114 8.9503 63.1322 8.75913 62.9913 8.61818C62.8503 8.47722 62.6592 8.39804 62.4598 8.39804C62.2605 8.39804 62.0693 8.47722 61.9284 8.61818C61.7874 8.75913 61.7082 8.9503 61.7082 9.14964V41.6293C61.7082 41.8287 61.7874 42.0198 61.9284 42.1608C62.0693 42.3017 62.2605 42.3809 62.4598 42.3809Z" fill="black"/>
    <path d="M73.1769 42.3809C73.3762 42.3809 73.5674 42.3017 73.7083 42.1608C73.8493 42.0198 73.9285 41.8287 73.9285 41.6293V20.9603C73.9285 20.761 73.8493 20.5698 73.7083 20.4289C73.5674 20.2879 73.3762 20.2087 73.1769 20.2087C72.9775 20.2087 72.7864 20.2879 72.6454 20.4289C72.5045 20.5698 72.4253 20.761 72.4253 20.9603V41.6293C72.4253 41.8287 72.5045 42.0198 72.6454 42.1608C72.7864 42.3017 72.9775 42.3809 73.1769 42.3809Z" fill="black"/>
    <path d="M47.9323 9.14964V41.6293C47.9323 41.8287 48.0115 42.0198 48.1525 42.1608C48.2934 42.3017 48.4846 42.3809 48.6839 42.3809C48.8833 42.3809 49.0745 42.3017 49.2154 42.1608C49.3564 42.0198 49.4355 41.8287 49.4355 41.6293V9.14964C49.4355 8.9503 49.3564 8.75913 49.2154 8.61818C49.0745 8.47722 48.8833 8.39804 48.6839 8.39804C48.4846 8.39804 48.2934 8.47722 48.1525 8.61818C48.0115 8.75913 47.9323 8.9503 47.9323 9.14964Z" fill="black"/>
    <path d="M51.7607 9.14964V41.6293C51.7607 41.8287 51.8399 42.0198 51.9809 42.1608C52.1218 42.3017 52.313 42.3809 52.5123 42.3809C52.7117 42.3809 52.9028 42.3017 53.0438 42.1608C53.1847 42.0198 53.2639 41.8287 53.2639 41.6293V9.14964C53.2639 8.9503 53.1847 8.75913 53.0438 8.61818C52.9028 8.47722 52.7117 8.39804 52.5123 8.39804C52.313 8.39804 52.1218 8.47722 51.9809 8.61818C51.8399 8.75913 51.7607 8.9503 51.7607 9.14964Z" fill="black"/>
    <path d="M56.3426 42.3809C56.542 42.3809 56.7331 42.3017 56.8741 42.1608C57.0151 42.0198 57.0942 41.8287 57.0942 41.6293V20.9603C57.0942 20.761 57.0151 20.5698 56.8741 20.4289C56.7331 20.2879 56.542 20.2087 56.3426 20.2087C56.1433 20.2087 55.9521 20.2879 55.8112 20.4289C55.6702 20.5698 55.591 20.761 55.591 20.9603V41.6293C55.591 41.8287 55.6702 42.0198 55.8112 42.1608C55.9521 42.3017 56.1433 42.3809 56.3426 42.3809Z" fill="black"/>
    <path d="M44.5199 41.6293V9.14964C44.5199 8.9503 44.4407 8.75913 44.2998 8.61818C44.1588 8.47722 43.9676 8.39804 43.7683 8.39804C43.569 8.39804 43.3778 8.47722 43.2368 8.61818C43.0959 8.75913 43.0167 8.9503 43.0167 9.14964V41.6293C43.0167 41.8287 43.0959 42.0198 43.2368 42.1608C43.3778 42.3017 43.569 42.3809 43.7683 42.3809C43.9676 42.3809 44.1588 42.3017 44.2998 42.1608C44.4407 42.0198 44.5199 41.8287 44.5199 41.6293Z" fill="black"/>
    <path d="M40.6968 41.6293V9.14964C40.6968 8.9503 40.6176 8.75913 40.4766 8.61818C40.3357 8.47722 40.1445 8.39804 39.9452 8.39804C39.7458 8.39804 39.5547 8.47722 39.4137 8.61818C39.2728 8.75913 39.1936 8.9503 39.1936 9.14964V41.6293C39.1936 41.8287 39.2728 42.0198 39.4137 42.1608C39.5547 42.3017 39.7458 42.3809 39.9452 42.3809C40.1445 42.3809 40.3357 42.3017 40.4766 42.1608C40.6176 42.0198 40.6968 41.8287 40.6968 41.6293Z" fill="black"/>
    <path d="M29.9861 42.3809C30.1854 42.3809 30.3766 42.3017 30.5175 42.1608C30.6585 42.0198 30.7377 41.8287 30.7377 41.6293V9.14964C30.7377 8.9503 30.6585 8.75913 30.5175 8.61818C30.3766 8.47722 30.1854 8.39804 29.9861 8.39804C29.7867 8.39804 29.5956 8.47722 29.4546 8.61818C29.3137 8.75913 29.2345 8.9503 29.2345 9.14964V41.6293C29.2345 41.8287 29.3137 42.0198 29.4546 42.1608C29.5956 42.3017 29.7867 42.3809 29.9861 42.3809Z" fill="black"/>
    <path d="M25.3913 42.3809C25.5907 42.3809 25.7819 42.3017 25.9228 42.1608C26.0638 42.0198 26.1429 41.8287 26.1429 41.6293V9.14964C26.1429 8.9503 26.0638 8.75913 25.9228 8.61818C25.7819 8.47722 25.5907 8.39804 25.3913 8.39804C25.192 8.39804 25.0008 8.47722 24.8599 8.61818C24.7189 8.75913 24.6397 8.9503 24.6397 9.14964V41.6293C24.6397 41.8287 24.7189 42.0198 24.8599 42.1608C25.0008 42.3017 25.192 42.3809 25.3913 42.3809Z" fill="black"/>
    <path d="M36.1081 42.3809C36.3075 42.3809 36.4986 42.3017 36.6396 42.1608C36.7806 42.0198 36.8597 41.8287 36.8597 41.6293V20.9603C36.8597 20.761 36.7806 20.5698 36.6396 20.4289C36.4986 20.2879 36.3075 20.2087 36.1081 20.2087C35.9088 20.2087 35.7176 20.2879 35.5767 20.4289C35.4357 20.5698 35.3565 20.761 35.3565 20.9603V41.6293C35.3565 41.8287 35.4357 42.0198 35.5767 42.1608C35.7176 42.3017 35.9088 42.3809 36.1081 42.3809Z" fill="black"/>
    <path d="M10.8639 9.14964L10.8639 41.6293C10.8639 41.8287 10.9431 42.0198 11.084 42.1608C11.225 42.3017 11.4161 42.3809 11.6155 42.3809C11.8148 42.3809 12.006 42.3017 12.1469 42.1608C12.2879 42.0198 12.3671 41.8287 12.3671 41.6293L12.3671 9.14964C12.3671 8.9503 12.2879 8.75913 12.1469 8.61818C12.006 8.47722 11.8148 8.39804 11.6155 8.39804C11.4161 8.39804 11.225 8.47722 11.084 8.61818C10.9431 8.75913 10.8639 8.9503 10.8639 9.14964Z" fill="black"/>
    <path d="M14.6897 9.14964L14.6897 41.6293C14.6897 41.8287 14.7689 42.0198 14.9098 42.1608C15.0508 42.3017 15.2419 42.3809 15.4413 42.3809C15.6406 42.3809 15.8318 42.3017 15.9727 42.1608C16.1137 42.0198 16.1929 41.8287 16.1929 41.6293V9.14964C16.1929 8.9503 16.1137 8.75913 15.9727 8.61818C15.8318 8.47722 15.6406 8.39804 15.4413 8.39804C15.2419 8.39804 15.0508 8.47722 14.9098 8.61818C14.7689 8.75913 14.6897 8.9503 14.6897 9.14964Z" fill="black"/>
    <path d="M19.2718 42.3809C19.4712 42.3809 19.6623 42.3017 19.8033 42.1608C19.9443 42.0198 20.0234 41.8287 20.0234 41.6293V20.9603C20.0234 20.761 19.9443 20.5698 19.8033 20.4289C19.6623 20.2879 19.4712 20.2087 19.2718 20.2087C19.0725 20.2087 18.8813 20.2879 18.7404 20.4289C18.5994 20.5698 18.5202 20.761 18.5202 20.9603V41.6293C18.5202 41.8287 18.5994 42.0198 18.7404 42.1608C18.8813 42.3017 19.0725 42.3809 19.2718 42.3809Z" fill="black"/>
    <path d="M111.153 1H128.416V48.678H111.153" stroke="black"/>
    <path d="M18.2629 49.5H1.00023L1.00023 1.82202H18.2629" stroke="black"/>
</svg>