<svg width="81" height="137" viewBox="0 0 81 137" fill="none" xmlns="http://www.w3.org/2000/svg">
    <rect width="80.6778" height="137" rx="12" fill="#B7B6B6"/>
    <path d="M62.4507 78.7036V65.3099C62.4507 65.2277 62.418 65.1489 62.3599 65.0908C62.3018 65.0326 62.2229 65 62.1407 65C62.0585 65 61.9797 65.0326 61.9216 65.0908C61.8635 65.1489 61.8308 65.2277 61.8308 65.3099V78.7036C61.8308 78.7858 61.8635 78.8646 61.9216 78.9228C61.9797 78.9809 62.0585 79.0135 62.1407 79.0135C62.2229 79.0135 62.3018 78.9809 62.3599 78.9228C62.418 78.8646 62.4507 78.7858 62.4507 78.7036Z" fill="black"/>
    <path d="M60.8751 78.7036V65.3099C60.8751 65.2277 60.8425 65.1489 60.7843 65.0908C60.7262 65.0326 60.6474 65 60.5652 65C60.483 65 60.4041 65.0326 60.346 65.0908C60.2879 65.1489 60.2552 65.2277 60.2552 65.3099V78.7036C60.2552 78.7858 60.2879 78.8646 60.346 78.9228C60.4041 78.9809 60.483 79.0135 60.5652 79.0135C60.6474 79.0135 60.7262 78.9809 60.7843 78.9228C60.8425 78.8646 60.8751 78.7858 60.8751 78.7036Z" fill="black"/>
    <path d="M56.4574 79.0135C56.5396 79.0135 56.6184 78.9809 56.6766 78.9228C56.7347 78.8646 56.7673 78.7858 56.7673 78.7036V65.3099C56.7673 65.2277 56.7347 65.1489 56.6766 65.0908C56.6184 65.0326 56.5396 65 56.4574 65C56.3752 65 56.2964 65.0326 56.2382 65.0908C56.1801 65.1489 56.1475 65.2277 56.1475 65.3099V78.7036C56.1475 78.7858 56.1801 78.8646 56.2382 78.9228C56.2964 78.9809 56.3752 79.0135 56.4574 79.0135Z" fill="black"/>
    <path d="M54.5626 79.0135C54.6448 79.0135 54.7237 78.9809 54.7818 78.9228C54.8399 78.8646 54.8726 78.7858 54.8726 78.7036V65.3099C54.8726 65.2277 54.8399 65.1489 54.7818 65.0908C54.7237 65.0326 54.6448 65 54.5626 65C54.4804 65 54.4016 65.0326 54.3435 65.0908C54.2853 65.1489 54.2527 65.2277 54.2527 65.3099V78.7036C54.2527 78.7858 54.2853 78.8646 54.3435 78.9228C54.4016 78.9809 54.4804 79.0135 54.5626 79.0135Z" fill="black"/>
    <path d="M58.9829 79.0135C59.0651 79.0135 59.1439 78.9809 59.2021 78.9228C59.2602 78.8646 59.2928 78.7858 59.2928 78.7036V70.1803C59.2928 70.0981 59.2602 70.0193 59.2021 69.9611C59.1439 69.903 59.0651 69.8704 58.9829 69.8704C58.9007 69.8704 58.8219 69.903 58.7637 69.9611C58.7056 70.0193 58.673 70.0981 58.673 70.1803V78.7036C58.673 78.7858 58.7056 78.8646 58.7637 78.9228C58.8219 78.9809 58.9007 79.0135 58.9829 79.0135Z" fill="black"/>
    <path d="M48.5729 65.3099V78.7036C48.5729 78.7858 48.6055 78.8646 48.6637 78.9228C48.7218 78.9809 48.8006 79.0135 48.8828 79.0135C48.965 79.0135 49.0438 78.9809 49.102 78.9228C49.1601 78.8646 49.1927 78.7858 49.1927 78.7036V65.3099C49.1927 65.2277 49.1601 65.1489 49.102 65.0908C49.0438 65.0326 48.965 65 48.8828 65C48.8006 65 48.7218 65.0326 48.6637 65.0908C48.6055 65.1489 48.5729 65.2277 48.5729 65.3099Z" fill="black"/>
    <path d="M50.1506 65.3099V78.7036C50.1506 78.7858 50.1833 78.8646 50.2414 78.9228C50.2995 78.9809 50.3784 79.0135 50.4606 79.0135C50.5428 79.0135 50.6216 78.9809 50.6797 78.9228C50.7379 78.8646 50.7705 78.7858 50.7705 78.7036V65.3099C50.7705 65.2277 50.7379 65.1489 50.6797 65.0908C50.6216 65.0326 50.5428 65 50.4606 65C50.3784 65 50.2995 65.0326 50.2414 65.0908C50.1833 65.1489 50.1506 65.2277 50.1506 65.3099Z" fill="black"/>
    <path d="M52.0397 79.0135C52.1219 79.0135 52.2007 78.9809 52.2588 78.9228C52.317 78.8646 52.3496 78.7858 52.3496 78.7036V70.1803C52.3496 70.0981 52.317 70.0193 52.2588 69.9611C52.2007 69.903 52.1219 69.8704 52.0397 69.8704C51.9575 69.8704 51.8786 69.903 51.8205 69.9611C51.7624 70.0193 51.7297 70.0981 51.7297 70.1803V78.7036C51.7297 78.7858 51.7624 78.8646 51.8205 78.9228C51.8786 78.9809 51.9575 79.0135 52.0397 79.0135Z" fill="black"/>
    <path d="M47.1647 78.7036V65.3099C47.1647 65.2277 47.132 65.1489 47.0739 65.0908C47.0158 65.0326 46.9369 65 46.8547 65C46.7725 65 46.6937 65.0326 46.6356 65.0908C46.5775 65.1489 46.5448 65.2277 46.5448 65.3099V78.7036C46.5448 78.7858 46.5775 78.8646 46.6356 78.9228C46.6937 78.9809 46.7725 79.0135 46.8547 79.0135C46.9369 79.0135 47.0158 78.9809 47.0739 78.9228C47.132 78.8646 47.1647 78.7858 47.1647 78.7036Z" fill="black"/>
    <path d="M45.5881 78.7036V65.3099C45.5881 65.2277 45.5555 65.1489 45.4974 65.0908C45.4392 65.0326 45.3604 65 45.2782 65C45.196 65 45.1172 65.0326 45.059 65.0908C45.0009 65.1489 44.9683 65.2277 44.9683 65.3099V78.7036C44.9683 78.7858 45.0009 78.8646 45.059 78.9228C45.1172 78.9809 45.196 79.0135 45.2782 79.0135C45.3604 79.0135 45.4392 78.9809 45.4974 78.9228C45.5555 78.8646 45.5881 78.7858 45.5881 78.7036Z" fill="black"/>
    <path d="M41.1714 79.0135C41.2536 79.0135 41.3324 78.9809 41.3905 78.9228C41.4487 78.8646 41.4813 78.7858 41.4813 78.7036V65.3099C41.4813 65.2277 41.4487 65.1489 41.3905 65.0908C41.3324 65.0326 41.2536 65 41.1714 65C41.0892 65 41.0104 65.0326 40.9522 65.0908C40.8941 65.1489 40.8614 65.2277 40.8614 65.3099V78.7036C40.8614 78.7858 40.8941 78.8646 40.9522 78.9228C41.0104 78.9809 41.0892 79.0135 41.1714 79.0135Z" fill="black"/>
    <path d="M39.2766 79.0135C39.3588 79.0135 39.4376 78.9809 39.4958 78.9228C39.5539 78.8646 39.5865 78.7858 39.5865 78.7036V65.3099C39.5865 65.2277 39.5539 65.1489 39.4958 65.0908C39.4376 65.0326 39.3588 65 39.2766 65C39.1944 65 39.1156 65.0326 39.0575 65.0908C38.9993 65.1489 38.9667 65.2277 38.9667 65.3099V78.7036C38.9667 78.7858 38.9993 78.8646 39.0575 78.9228C39.1156 78.9809 39.1944 79.0135 39.2766 79.0135Z" fill="black"/>
    <path d="M43.696 79.0135C43.7782 79.0135 43.8571 78.9809 43.9152 78.9228C43.9733 78.8646 44.006 78.7858 44.006 78.7036V70.1803C44.006 70.0981 43.9733 70.0193 43.9152 69.9611C43.8571 69.903 43.7782 69.8704 43.696 69.8704C43.6138 69.8704 43.535 69.903 43.4769 69.9611C43.4188 70.0193 43.3861 70.0981 43.3861 70.1803V78.7036C43.3861 78.7858 43.4188 78.8646 43.4769 78.9228C43.535 78.9809 43.6138 79.0135 43.696 79.0135Z" fill="black"/>
    <path d="M33.2859 65.3099V78.7036C33.2859 78.7858 33.3185 78.8646 33.3767 78.9228C33.4348 78.9809 33.5136 79.0135 33.5958 79.0135C33.678 79.0135 33.7569 78.9809 33.815 78.9228C33.8731 78.8646 33.9058 78.7858 33.9058 78.7036V65.3099C33.9058 65.2277 33.8731 65.1489 33.815 65.0908C33.7569 65.0326 33.678 65 33.5958 65C33.5136 65 33.4348 65.0326 33.3767 65.0908C33.3185 65.1489 33.2859 65.2277 33.2859 65.3099Z" fill="black"/>
    <path d="M34.8646 65.3099V78.7036C34.8646 78.7858 34.8973 78.8646 34.9554 78.9228C35.0135 78.9809 35.0924 79.0135 35.1746 79.0135C35.2568 79.0135 35.3356 78.9809 35.3937 78.9228C35.4518 78.8646 35.4845 78.7858 35.4845 78.7036V65.3099C35.4845 65.2277 35.4518 65.1489 35.3937 65.0908C35.3356 65.0326 35.2568 65 35.1746 65C35.0924 65 35.0135 65.0326 34.9554 65.0908C34.8973 65.1489 34.8646 65.2277 34.8646 65.3099Z" fill="black"/>
    <path d="M36.754 79.0135C36.8362 79.0135 36.9151 78.9809 36.9732 78.9228C37.0313 78.8646 37.064 78.7858 37.064 78.7036V70.1803C37.064 70.0981 37.0313 70.0193 36.9732 69.9611C36.9151 69.903 36.8362 69.8704 36.754 69.8704C36.6718 69.8704 36.593 69.903 36.5349 69.9611C36.4767 70.0193 36.4441 70.0981 36.4441 70.1803V78.7036C36.4441 78.7858 36.4767 78.8646 36.5349 78.9228C36.593 78.9809 36.6718 79.0135 36.754 79.0135Z" fill="black"/>
    <path d="M31.8787 78.7036V65.3099C31.8787 65.2277 31.846 65.1489 31.7879 65.0908C31.7298 65.0326 31.6509 65 31.5687 65C31.4865 65 31.4077 65.0326 31.3496 65.0908C31.2914 65.1489 31.2588 65.2277 31.2588 65.3099V78.7036C31.2588 78.7858 31.2914 78.8646 31.3496 78.9228C31.4077 78.9809 31.4865 79.0135 31.5687 79.0135C31.6509 79.0135 31.7298 78.9809 31.7879 78.9228C31.846 78.8646 31.8787 78.7858 31.8787 78.7036Z" fill="black"/>
    <path d="M30.3021 78.7036V65.3099C30.3021 65.2277 30.2695 65.1489 30.2113 65.0908C30.1532 65.0326 30.0744 65 29.9922 65C29.91 65 29.8312 65.0326 29.773 65.0908C29.7149 65.1489 29.6822 65.2277 29.6822 65.3099V78.7036C29.6822 78.7858 29.7149 78.8646 29.773 78.9228C29.8312 78.9809 29.91 79.0135 29.9922 79.0135C30.0744 79.0135 30.1532 78.9809 30.2113 78.9228C30.2695 78.8646 30.3021 78.7858 30.3021 78.7036Z" fill="black"/>
    <path d="M25.8854 79.0135C25.9676 79.0135 26.0464 78.9809 26.1045 78.9228C26.1627 78.8646 26.1953 78.7858 26.1953 78.7036V65.3099C26.1953 65.2277 26.1627 65.1489 26.1045 65.0908C26.0464 65.0326 25.9676 65 25.8854 65C25.8032 65 25.7243 65.0326 25.6662 65.0908C25.6081 65.1489 25.5754 65.2277 25.5754 65.3099V78.7036C25.5754 78.7858 25.6081 78.8646 25.6662 78.9228C25.7243 78.9809 25.8032 79.0135 25.8854 79.0135Z" fill="black"/>
    <path d="M23.9906 79.0135C24.0728 79.0135 24.1516 78.9809 24.2098 78.9228C24.2679 78.8646 24.3005 78.7858 24.3005 78.7036V65.3099C24.3005 65.2277 24.2679 65.1489 24.2098 65.0908C24.1516 65.0326 24.0728 65 23.9906 65C23.9084 65 23.8296 65.0326 23.7714 65.0908C23.7133 65.1489 23.6807 65.2277 23.6807 65.3099V78.7036C23.6807 78.7858 23.7133 78.8646 23.7714 78.9228C23.8296 78.9809 23.9084 79.0135 23.9906 79.0135Z" fill="black"/>
    <path d="M28.4099 79.0135C28.4921 79.0135 28.5709 78.9809 28.6291 78.9228C28.6872 78.8646 28.7198 78.7858 28.7198 78.7036V70.1803C28.7198 70.0981 28.6872 70.0193 28.6291 69.9611C28.5709 69.903 28.4921 69.8704 28.4099 69.8704C28.3277 69.8704 28.2489 69.903 28.1908 69.9611C28.1326 70.0193 28.1 70.0981 28.1 70.1803V78.7036C28.1 78.7858 28.1326 78.8646 28.1908 78.9228C28.2489 78.9809 28.3277 79.0135 28.4099 79.0135Z" fill="black"/>
    <path d="M18 65.3099V78.7036C18 78.7858 18.0327 78.8646 18.0908 78.9228C18.1489 78.9809 18.2277 79.0135 18.3099 79.0135C18.3921 79.0135 18.471 78.9809 18.5291 78.9228C18.5872 78.8646 18.6199 78.7858 18.6199 78.7036V65.3099C18.6199 65.2277 18.5872 65.1489 18.5291 65.0908C18.471 65.0326 18.3921 65 18.3099 65C18.2277 65 18.1489 65.0326 18.0908 65.0908C18.0327 65.1489 18 65.2277 18 65.3099Z" fill="black"/>
    <path d="M19.5776 65.3099V78.7036C19.5776 78.7858 19.6103 78.8646 19.6684 78.9228C19.7265 78.9809 19.8054 79.0135 19.8876 79.0135C19.9698 79.0135 20.0486 78.9809 20.1067 78.9228C20.1649 78.8646 20.1975 78.7858 20.1975 78.7036V65.3099C20.1975 65.2277 20.1649 65.1489 20.1067 65.0908C20.0486 65.0326 19.9698 65 19.8876 65C19.8054 65 19.7265 65.0326 19.6684 65.0908C19.6103 65.1489 19.5776 65.2277 19.5776 65.3099Z" fill="black"/>
    <path d="M21.4672 79.0135C21.5494 79.0135 21.6282 78.9809 21.6863 78.9228C21.7444 78.8646 21.7771 78.7858 21.7771 78.7036V70.1803C21.7771 70.0981 21.7444 70.0193 21.6863 69.9611C21.6282 69.903 21.5494 69.8704 21.4672 69.8704C21.385 69.8704 21.3061 69.903 21.248 69.9611C21.1899 70.0193 21.1572 70.0981 21.1572 70.1803V78.7036C21.1572 78.7858 21.1899 78.8646 21.248 78.9228C21.3061 78.9809 21.385 79.0135 21.4672 79.0135Z" fill="black"/>
    <rect x="9" y="9" width="43" height="4" rx="2" fill="#D9D9D9"/>
    <rect x="9" y="18" width="20" height="4" rx="2" fill="#D9D9D9"/>
    <rect x="9" y="27" width="27" height="4" rx="2" fill="#D9D9D9"/>
</svg>