<svg width="72" height="57" viewBox="0 0 72 57" fill="none" xmlns="http://www.w3.org/2000/svg">
    <path d="M7 25.5085C7.07484 25.4836 7.14968 25.4742 7.23075 25.4742C7.62988 25.4742 8.03213 25.4586 8.43126 25.4804C8.75867 25.4992 9.08609 25.524 9.41038 25.5023C10.3022 25.4461 11.1971 25.4648 12.0889 25.4836C12.9153 25.4992 13.7322 25.6176 14.5056 25.9326C15.3631 26.2818 16.0272 26.8524 16.495 27.6507C16.8567 28.265 17.0344 28.9323 17.0875 29.6433C17.1529 30.5506 17.0001 31.4113 16.6166 32.2283C16.1052 33.3196 15.2633 34.0618 14.1407 34.4889C13.4672 34.7447 12.7656 34.8569 12.0453 34.9068C11.3406 34.9536 10.6483 34.8787 9.95295 34.8258C9.36049 34.782 8.77115 34.7633 8.1818 34.7789C7.93858 34.7852 7.69536 34.8039 7.45214 34.8039C7.40537 34.8039 7.3586 34.8039 7.31182 34.7945C7.24322 34.7789 7.18398 34.7416 7.19333 34.6574C7.19957 34.5763 7.26193 34.5575 7.32741 34.5544C7.46773 34.5482 7.60494 34.545 7.74525 34.5202C7.93547 34.4858 8.0446 34.3861 8.10073 34.199C8.1818 33.9371 8.20052 33.6688 8.21299 33.4007C8.26288 32.328 8.24728 31.2523 8.24728 30.1764C8.24728 29.2099 8.24417 28.2432 8.24728 27.2766C8.24728 26.9866 8.21922 26.6966 8.20675 26.4065C8.19116 25.9513 7.94794 25.7423 7.48644 25.7299C7.32429 25.7237 7.15279 25.7704 7 25.6644C7 25.6114 7 25.5615 7 25.5085ZM9.80951 29.5341C9.81575 30.6504 9.79081 31.8821 9.84381 33.1107C9.85005 33.2542 9.88435 33.3976 9.89371 33.541C9.91553 33.8341 10.1057 33.9901 10.3521 34.096C10.4612 34.1428 10.5766 34.1771 10.692 34.2052C11.1971 34.3268 11.7085 34.3144 12.223 34.2707C12.7718 34.2239 13.2988 34.1054 13.7852 33.8341C14.3621 33.5098 14.808 33.0701 15.0699 32.4465C15.3007 31.8946 15.3787 31.3177 15.4098 30.7315C15.4472 30.0642 15.3693 29.4094 15.1479 28.7701C14.7706 27.685 14.0347 26.9335 12.9932 26.4907C12.117 26.1196 11.194 26.0137 10.2492 26.1072C9.87188 26.1446 9.80951 26.2163 9.80951 26.5999C9.80951 27.5416 9.80951 28.4801 9.80951 29.5341Z" fill="black"/>
    <path d="M34.6898 0.00311746C34.9424 0.0530089 35.2012 0.0717175 35.4507 0.146555C36.224 0.386657 36.8289 0.848154 37.225 1.54975C37.7612 2.49769 37.7893 3.48305 37.2842 4.44969C36.8102 5.35398 36.0463 5.88408 35.0422 6.05246C34.1286 6.20525 33.2866 6.00881 32.5538 5.43505C31.9115 4.93302 31.5186 4.27195 31.4094 3.45186C31.3003 2.62242 31.4967 1.87093 32.0081 1.21611C32.5632 0.511388 33.2929 0.106019 34.1972 0.0249453C34.2377 0.0218271 34.2783 0.00623644 34.3156 0C34.4403 0.00311821 34.5651 0.00311746 34.6898 0.00311746Z" fill="black"/>
    <path d="M62.8785 40.6974C62.8504 40.7068 62.8193 40.7255 62.7912 40.7255C62.3547 40.7286 61.9181 40.7286 61.4816 40.7286C61.4348 40.7286 61.3849 40.7161 61.3662 40.6632C61.3506 40.6163 61.3974 40.607 61.4255 40.5852C61.4816 40.5415 61.4691 40.4854 61.4472 40.4293C61.3132 40.0769 61.176 39.7214 61.045 39.3659C61.0169 39.288 60.9671 39.2661 60.8922 39.2661C60.543 39.2661 60.1968 39.2661 59.8476 39.2661C59.7634 39.2661 59.7104 39.2973 59.6792 39.3784C59.5732 39.6715 59.4578 39.9615 59.3581 40.2546C59.277 40.4948 59.3331 40.5727 59.5826 40.6007C59.6262 40.607 59.6855 40.5976 59.6855 40.6663C59.6855 40.7318 59.6262 40.7286 59.5795 40.7318C59.1678 40.7318 58.7594 40.7318 58.3477 40.7318C58.3041 40.7318 58.2449 40.7349 58.2449 40.6663C58.2449 40.6007 58.3041 40.6038 58.3477 40.6007C58.5972 40.5914 58.7688 40.4698 58.8591 40.239C59.118 39.6061 59.3736 38.9699 59.6294 38.3338C59.8632 37.7507 60.094 37.1676 60.331 36.5845C60.3715 36.4878 60.3902 36.3444 60.518 36.3413C60.649 36.3382 60.6552 36.4816 60.6927 36.572C61.0886 37.5543 61.4816 38.5365 61.8807 39.5156C61.9805 39.762 62.0772 40.0052 62.2019 40.2421C62.3142 40.4573 62.4794 40.5852 62.7288 40.5945C62.7818 40.5976 62.8318 40.6007 62.8785 40.6288C62.8785 40.6569 62.8785 40.6756 62.8785 40.6974ZM60.3902 37.5917C60.3777 37.5917 60.3621 37.5917 60.3496 37.5917C60.1968 38.0033 60.044 38.4149 59.8944 38.8265C59.8601 38.92 59.9006 38.9481 59.9879 38.945C60.2405 38.9419 60.4962 38.9419 60.7488 38.945C60.8579 38.9481 60.8704 38.8982 60.8393 38.8109C60.7769 38.6394 60.7176 38.4679 60.6552 38.2995C60.571 38.0657 60.4806 37.8287 60.3902 37.5917Z" fill="black"/>
    <path d="M22.1232 40.7589C22.0609 40.7215 21.9923 40.7309 21.9268 40.7309C21.4061 40.7309 20.8884 40.7309 20.3677 40.7309C20.3271 40.7309 20.2835 40.7309 20.243 40.7278C20.1962 40.7247 20.1401 40.7278 20.1401 40.6623C20.1401 40.6061 20.1899 40.6061 20.2305 40.5999C20.2523 40.5968 20.271 40.5968 20.2929 40.5937C20.4799 40.5625 20.5361 40.497 20.561 40.3099C20.6203 39.8921 20.586 39.4711 20.5891 39.0501C20.5953 38.3859 20.5922 37.7187 20.5922 37.0545C20.5922 36.7146 20.5424 36.6523 20.2087 36.5868C20.1588 36.5774 20.0715 36.6024 20.084 36.5151C20.0933 36.4402 20.1713 36.4558 20.2243 36.4527C20.4363 36.4465 20.6483 36.4682 20.8603 36.4776C21.1223 36.487 21.3873 36.462 21.6524 36.4527C21.6929 36.4527 21.7365 36.4527 21.7771 36.4558C21.8208 36.4589 21.8613 36.4776 21.8582 36.5307C21.8551 36.5774 21.8083 36.5743 21.774 36.5805C21.3468 36.6616 21.3468 36.6616 21.3468 37.1013C21.3468 38.0056 21.3468 38.9098 21.3468 39.8141C21.3468 39.8827 21.3468 39.9513 21.3593 40.0168C21.4123 40.3037 21.4934 40.363 21.7865 40.3816C21.9892 40.3941 22.1856 40.4097 22.3883 40.3847C22.6627 40.3473 22.7843 40.2631 22.8716 39.9981C22.8841 39.9575 22.8935 39.917 22.9091 39.8796C22.9215 39.8485 22.9464 39.8266 22.9839 39.836C23.0119 39.8422 23.0244 39.8702 23.0244 39.8952C23.0431 40.1478 23.0057 40.391 22.9308 40.6311C22.9028 40.7184 22.8093 40.7184 22.7438 40.7558C22.538 40.7589 22.3321 40.7589 22.1232 40.7589Z" fill="black"/>
    <path d="M28.1384 5.70901C29.3514 5.57804 30.5145 5.74019 31.6089 6.27652C32.1235 6.5291 32.5912 6.85339 33.0215 7.23382C33.5235 7.67661 34.0007 8.14745 34.3936 8.69314C34.4684 8.79604 34.5152 8.74927 34.5681 8.67755C34.8893 8.25347 35.2386 7.86058 35.6284 7.49887C36.6075 6.58835 37.7176 5.93351 39.0647 5.74643C39.6852 5.65912 40.312 5.64664 40.9418 5.71836C40.9169 5.76826 40.8763 5.76514 40.842 5.76514C40.1373 5.80255 39.6478 6.19233 39.2611 6.74426C38.784 7.4209 38.5563 8.19734 38.3818 8.99249C38.3007 9.35731 38.2477 9.7284 38.1853 10.0963C38.1791 10.1399 38.1791 10.1837 38.176 10.2304C38.2446 10.2179 38.2383 10.1493 38.2944 10.1213C38.3225 10.2523 38.282 10.377 38.2726 10.4986C38.2352 10.8946 38.2071 11.2937 38.1853 11.6897C38.1448 12.4787 38.1853 13.2675 38.151 14.0565C38.0887 15.4566 37.9171 16.8442 37.4806 18.1881C37.15 19.2078 36.6948 20.1651 36.0057 20.9977C35.6159 21.4653 35.1731 21.877 34.6181 22.1545C34.5152 22.2075 34.4278 22.2075 34.325 22.1545C33.826 21.9019 33.4238 21.5246 33.0527 21.1161C32.6318 20.6515 32.3044 20.1214 32.0269 19.5632C31.6932 18.8928 31.45 18.185 31.2691 17.4584C31.0727 16.6726 30.951 15.8744 30.8793 15.0668C30.7982 14.1656 30.7827 13.2644 30.7889 12.3632C30.792 11.6928 30.7421 11.0286 30.6766 10.3613C30.6766 10.3521 30.686 10.3458 30.7016 10.3115C30.7671 10.5173 30.8263 10.7044 30.8855 10.8915C30.9199 10.7044 30.8824 10.5266 30.8544 10.3521C30.7359 9.55064 30.6392 8.74615 30.424 7.96036C30.2712 7.40531 30.0717 6.8721 29.6944 6.42308C29.3577 6.02083 28.9305 5.7932 28.4066 5.74019C28.3193 5.73084 28.2288 5.71836 28.1384 5.70901Z" fill="black"/>
    <path d="M26.2954 6.26393C26.2268 6.33253 26.1582 6.40112 26.0958 6.47285C25.7309 6.88445 25.6062 7.38025 25.5906 7.91346C25.5657 8.69925 25.7559 9.44759 26.0054 10.1867C26.2579 10.9382 26.6134 11.6428 26.9533 12.3569C26.9658 12.385 26.9752 12.4162 27.025 12.4193C27.0593 12.2976 26.9564 12.201 26.9596 12.07C27.0188 12.095 27.0407 12.1448 27.0655 12.1886C27.4304 12.859 27.8077 13.52 28.1601 14.1967C28.4407 14.7361 28.6839 15.2943 28.8929 15.8618C29.1423 16.5291 29.3419 17.212 29.4635 17.9135C29.5321 18.3065 29.5664 18.7025 29.5851 19.1016C29.6132 19.6878 29.5571 20.2585 29.4198 20.826C29.3201 21.2438 29.161 21.6367 28.9271 21.9953C28.8741 22.0795 28.8087 22.1107 28.7089 22.1107C28.0353 22.1263 27.4055 21.9423 26.8005 21.6711C26.0459 21.3311 25.3786 20.8634 24.7643 20.3146C24.0315 19.6598 23.411 18.9145 22.8403 18.1225C22.2386 17.2868 21.7646 16.3732 21.2282 15.497C20.7075 14.6457 20.1525 13.8194 19.4571 13.099C19.4166 13.0585 19.3293 13.018 19.4384 12.9463C19.479 12.9182 19.4322 12.8807 19.4072 12.859C18.9301 12.4037 18.4687 11.9328 17.8637 11.6335C17.4958 11.4527 17.1185 11.3841 16.7162 11.4838C16.6913 11.49 16.6663 11.5025 16.6351 11.462C16.8379 11.3186 17.0654 11.2157 17.2899 11.1158C17.8231 10.8758 18.3876 10.7292 18.9676 10.6668C19.5101 10.6076 20.0527 10.6451 20.5922 10.7354C21.3031 10.854 21.9829 11.0691 22.6439 11.356C22.7375 11.3965 22.7655 11.3872 22.7811 11.2811C22.8778 10.6076 23.0462 9.94961 23.3019 9.31666C23.6106 8.54958 24.0502 7.86981 24.6552 7.30541C25.1167 6.87509 25.6375 6.52586 26.2143 6.2608C26.2361 6.25145 26.261 6.24522 26.286 6.23898C26.286 6.25146 26.2891 6.25769 26.2954 6.26393Z" fill="black"/>
    <path d="M42.5664 6.11441C42.9281 6.26096 43.2368 6.44806 43.5331 6.65386C44.163 7.09041 44.693 7.62363 45.0984 8.27845C45.51 8.94264 45.7751 9.66607 45.9497 10.4237C46.0027 10.6607 46.0588 10.8977 46.0807 11.141C46.09 11.247 46.1274 11.2969 46.2552 11.2438C47.0317 10.9102 47.8362 10.6732 48.675 10.5734C49.7103 10.4518 50.6987 10.6203 51.6497 11.0474C51.8711 11.1472 52.0801 11.2688 52.2984 11.3811C52.2516 11.431 52.2173 11.3998 52.1892 11.3904C51.7464 11.247 51.3255 11.328 50.9232 11.5338C50.6114 11.6929 50.3339 11.9049 50.0751 12.1388C49.6697 12.5098 49.3049 12.9278 48.9244 13.3206C48.912 13.3331 48.9089 13.3549 48.8996 13.3737C48.9588 13.4204 48.9962 13.3362 49.071 13.3705C48.9713 13.4952 48.8777 13.6137 48.7841 13.7322C48.2416 14.4244 47.7614 15.1572 47.3311 15.9212C46.8477 16.7818 46.3363 17.6237 45.7439 18.4126C45.2699 19.0457 44.7461 19.635 44.1599 20.1651C43.3585 20.8948 42.4667 21.4841 41.4221 21.8146C41.0135 21.9425 40.5957 22.0142 40.1685 22.0173C40.0781 22.0173 40.0126 21.9892 39.9596 21.9144C39.6727 21.506 39.5199 21.0444 39.4108 20.5673C39.2861 20.0186 39.2393 19.4572 39.2767 18.8991C39.3235 18.157 39.4544 17.4304 39.6603 16.7132C39.9097 15.8526 40.2558 15.0325 40.6425 14.2249C40.6643 14.1781 40.6643 14.0815 40.7765 14.1251C40.814 14.1407 40.8421 14.069 40.867 14.0285C41.4096 13.0587 41.9927 12.1108 42.4698 11.1067C42.8814 10.2367 43.2493 9.348 43.3771 8.38135C43.4426 7.88867 43.4333 7.396 43.2275 6.92826C43.1059 6.65075 42.925 6.42311 42.6787 6.24226C42.6381 6.22043 42.5945 6.1986 42.5664 6.11441Z" fill="black"/>
    <path d="M53.1122 12.0188C53.2401 12.1716 53.3742 12.3182 53.4927 12.4772C54.0882 13.2754 54.3065 14.1829 54.2379 15.162C54.2129 15.5081 54.1631 15.8542 54.0695 16.1879C54.0415 16.2877 54.0446 16.3563 54.1756 16.3345C54.5747 16.269 54.9738 16.3345 55.3667 16.3781C55.9655 16.4435 56.5361 16.6026 57.0693 16.8957C57.6461 17.2138 58.1202 17.6472 58.5036 18.1836C58.5286 18.2178 58.5536 18.249 58.5567 18.3207C58.4631 18.2459 58.3883 18.1711 58.301 18.1181C57.8707 17.8499 57.4029 17.8623 56.9321 17.9622C56.1993 18.1118 55.5475 18.4517 54.9115 18.8321C54.1568 19.2843 53.4833 19.8486 52.7693 20.357C51.709 21.1115 50.5803 21.7321 49.3018 22.0346C48.597 22.1998 47.8893 22.256 47.1752 22.0907C46.6357 21.966 46.7012 21.9722 46.6669 21.4546C46.6295 20.8995 46.7854 20.3663 47.0068 19.8549C47.3218 19.1315 47.7738 18.5048 48.3008 17.9247C48.5253 17.6784 48.7343 17.4164 49.0087 17.2294C49.1989 17.1016 49.4015 16.9924 49.5856 16.8521C50.4586 16.1817 51.3442 15.5268 52.1051 14.7224C52.4637 14.345 52.7974 13.9459 53.0249 13.472C53.237 13.0292 53.343 12.5801 53.0905 12.1124C53.0842 12.0874 53.0749 12.0625 53.1122 12.0188Z" fill="black"/>
    <path d="M10.4238 18.3079C10.4893 18.1363 10.6078 18.0054 10.7201 17.8776C11.4435 17.0419 12.3571 16.5554 13.4516 16.3995C13.8009 16.3496 14.1532 16.3465 14.5025 16.3091C14.596 16.2997 14.6864 16.3153 14.78 16.3309C14.9203 16.3558 14.9484 16.3247 14.9141 16.1844C14.7925 15.7135 14.7239 15.2364 14.7332 14.7531C14.7488 13.7303 15.1074 12.8385 15.8121 12.0933C15.8371 12.0683 15.8651 12.0464 15.9025 12.0153C15.9088 12.0403 15.9181 12.0558 15.9119 12.0652C15.65 12.4831 15.6999 12.9102 15.8807 13.3343C16.0584 13.7552 16.3297 14.1139 16.6322 14.4569C17.4523 15.3861 18.4314 16.1344 19.4292 16.8547C19.8377 17.1509 20.2493 17.4379 20.5924 17.8121C21.2939 18.5791 21.8864 19.4086 22.1795 20.4189C22.3104 20.8648 22.3604 21.3232 22.2824 21.7878C22.2637 21.9031 22.2076 21.9655 22.0953 22.0061C21.5621 22.1869 21.0195 22.2025 20.4645 22.1526C19.4917 22.0653 18.5967 21.7317 17.736 21.2889C16.9035 20.8616 16.1427 20.3191 15.4036 19.7453C14.886 19.3431 14.3465 18.9783 13.7759 18.654C13.2708 18.3671 12.75 18.127 12.1887 17.9867C11.7647 17.8807 11.3406 17.8432 10.9165 17.996C10.7294 18.0646 10.5704 18.1738 10.4238 18.3079Z" fill="black"/>
    <path d="M17.6862 30.2985C17.6799 28.9202 18.0604 27.8319 18.8492 26.9028C19.4168 26.2355 20.1433 25.7927 20.9852 25.5401C21.6588 25.3374 22.3479 25.2626 23.0463 25.2937C24.1814 25.3436 25.2541 25.6055 26.1739 26.3165C26.7664 26.7748 27.1843 27.3673 27.4524 28.0658C27.7518 28.8453 27.8204 29.6561 27.7424 30.4824C27.6676 31.3088 27.4243 32.079 26.9753 32.7774C26.2706 33.8688 25.2665 34.5361 24.0099 34.8354C23.5422 34.9477 23.0682 34.9976 22.5912 34.9882C21.7554 34.9726 20.9385 34.8292 20.1838 34.4457C19.1361 33.9094 18.4158 33.0705 18.0074 31.9698C17.8015 31.4054 17.6706 30.8441 17.6862 30.2985ZM19.4137 29.6093C19.4137 30.2205 19.4604 30.6976 19.5758 31.1684C19.794 32.079 20.187 32.896 20.9197 33.5164C21.6681 34.1495 22.5318 34.4114 23.5047 34.3053C24.4247 34.2056 25.0795 33.7067 25.5066 32.9021C25.8871 32.1787 25.9869 31.3867 26.0211 30.5853C26.0367 30.2392 26.0055 29.8931 25.9619 29.547C25.859 28.755 25.6189 28.0128 25.1481 27.3548C24.7645 26.8185 24.275 26.41 23.6638 26.1668C23.1399 25.9579 22.5974 25.883 22.0329 25.9516C21.0757 26.067 20.3585 26.5286 19.9095 27.3829C19.5165 28.1157 19.4261 28.917 19.4137 29.6093Z" fill="black"/>
    <path d="M55.3355 30.1672C55.3355 30.242 55.3355 30.3044 55.3355 30.3667C55.3355 31.3334 55.3355 32.3 55.3355 33.2667C55.3355 33.5317 55.3448 33.7968 55.4009 34.0556C55.4727 34.3924 55.6192 34.5015 55.9653 34.5265C56.115 34.539 56.2647 34.5576 56.4143 34.5576C56.4923 34.5576 56.5671 34.5919 56.5671 34.6824C56.5671 34.7697 56.4954 34.8071 56.4175 34.8071C56.0121 34.804 55.6098 34.8165 55.2044 34.7915C54.7648 34.7635 54.322 34.7604 53.8823 34.7977C53.555 34.8258 53.2275 34.8102 52.9001 34.804C52.8191 34.8008 52.7411 34.7635 52.7505 34.6605C52.7597 34.5638 52.8408 34.5576 52.9125 34.5545C53.0373 34.5513 53.1589 34.5421 53.2836 34.5265C53.4926 34.4984 53.6017 34.3768 53.6609 34.1865C53.7451 33.9059 53.7607 33.6128 53.767 33.3259C53.82 31.4301 53.8106 29.5342 53.795 27.6383C53.7919 27.2049 53.7888 26.7684 53.7514 26.3349C53.7171 25.9139 53.4583 25.7767 53.0498 25.7394C52.9469 25.73 52.8408 25.7394 52.738 25.7331C52.6507 25.7269 52.5602 25.7081 52.5633 25.599C52.5633 25.4805 52.6632 25.4805 52.7442 25.4805C53.346 25.4774 53.9478 25.4961 54.5496 25.5055C55.0455 25.5117 55.5444 25.4711 56.0433 25.4805C56.09 25.4805 56.1368 25.4805 56.1836 25.4836C56.2584 25.4867 56.3208 25.5148 56.3208 25.599C56.3208 25.6769 56.2615 25.7206 56.1898 25.73C56.0714 25.7456 55.9528 25.7394 55.8344 25.7642C55.5569 25.8235 55.4383 25.9264 55.3853 26.207C55.3572 26.3473 55.3386 26.4939 55.3386 26.6404C55.3355 27.576 55.3355 28.5114 55.3355 29.4468C55.3355 29.4812 55.3417 29.5186 55.3448 29.5654C55.4539 29.5373 55.482 29.4344 55.5444 29.372C55.7907 29.1195 56.0401 28.87 56.2803 28.6112C56.6763 28.184 57.0973 27.7849 57.4932 27.3577C57.8238 27.0022 58.1636 26.6498 58.435 26.2414C58.4786 26.1759 58.5129 26.1073 58.5316 26.0293C58.5628 25.889 58.5036 25.783 58.3664 25.7425C58.2791 25.7175 58.198 25.6863 58.2167 25.5803C58.2353 25.4836 58.3258 25.4836 58.4038 25.4836C58.7717 25.4836 59.1396 25.4899 59.5076 25.5117C60.0158 25.5397 60.5241 25.4618 61.0325 25.4836C61.073 25.4867 61.1166 25.4836 61.1572 25.4836C61.2382 25.4867 61.3411 25.4774 61.3473 25.5928C61.3536 25.7112 61.257 25.7362 61.1665 25.7362C60.4992 25.7425 59.9722 26.0667 59.4765 26.4752C59.2238 26.6841 59.0025 26.9274 58.7686 27.155C58.2292 27.6819 57.6897 28.2058 57.1565 28.7359C56.9538 28.9354 56.7636 29.1506 56.564 29.3533C56.5048 29.4157 56.5048 29.4656 56.5609 29.5279C56.8915 29.899 57.2188 30.2763 57.5525 30.6442C58.173 31.3272 58.7998 32.0069 59.4421 32.668C59.9379 33.1794 60.4338 33.6845 61.0262 34.0868C61.419 34.3518 61.8494 34.5265 62.3265 34.5607C62.4107 34.567 62.4918 34.5919 62.4886 34.6918C62.4886 34.779 62.4107 34.8133 62.3327 34.8133C61.5501 34.7946 60.7642 34.8788 59.9847 34.7572C59.5513 34.6886 59.2176 34.4329 58.8934 34.1585C58.3539 33.7001 57.9111 33.1482 57.4465 32.6181C56.9601 32.0662 56.4798 31.5081 56.0028 30.9498C55.8156 30.7284 55.6379 30.4977 55.4571 30.27C55.4321 30.2264 55.4134 30.1797 55.3355 30.1672Z" fill="black"/>
    <path d="M47.7706 29.9801C47.9982 29.5716 48.2165 29.1912 48.4254 28.8014C48.809 28.0874 49.2268 27.3951 49.5886 26.6717C49.6696 26.5095 49.7258 26.3349 49.7663 26.1572C49.8131 25.9389 49.7289 25.7955 49.5106 25.733C49.4856 25.7269 49.4607 25.7206 49.4358 25.7144C49.3672 25.6957 49.3017 25.6676 49.3079 25.5834C49.3172 25.4899 49.3921 25.4805 49.47 25.4774C49.8972 25.4555 50.3214 25.521 50.7454 25.5055C51.1663 25.4899 51.5842 25.4743 52.0052 25.4774C52.0519 25.4774 52.0987 25.4774 52.1455 25.4868C52.1953 25.4961 52.2297 25.5273 52.2391 25.5772C52.2484 25.6333 52.2141 25.6676 52.1705 25.6863C52.1299 25.705 52.0831 25.7269 52.0363 25.7269C51.4938 25.7424 51.1196 26.0418 50.814 26.4534C50.2683 27.1924 49.8069 27.9876 49.3422 28.7796C49.071 29.2411 48.8121 29.7057 48.5502 30.1734C48.3382 30.5538 48.2633 30.9717 48.2602 31.402C48.2571 31.9789 48.254 32.5557 48.2633 33.1326C48.2664 33.4102 48.2913 33.6908 48.3226 33.9683C48.3662 34.3362 48.544 34.4922 48.9182 34.5171C49.0927 34.5296 49.2674 34.5607 49.4451 34.5514C49.52 34.5483 49.601 34.5701 49.6072 34.6606C49.6103 34.7479 49.5355 34.7821 49.4607 34.7978C49.4108 34.8071 49.3578 34.804 49.3047 34.804C48.8027 34.804 48.2976 34.804 47.7956 34.7759C47.1781 34.7416 46.5608 34.8196 45.9434 34.804C45.8904 34.804 45.8373 34.8071 45.7874 34.7978C45.7126 34.7853 45.6378 34.7634 45.6409 34.6668C45.6471 34.5764 45.7157 34.5514 45.7937 34.5483C45.8904 34.542 45.9901 34.5358 46.0868 34.5296C46.4735 34.5078 46.595 34.2551 46.6231 33.9215C46.698 33.0297 46.6574 32.1379 46.6511 31.243C46.648 30.8688 46.5077 30.5196 46.3175 30.1984C45.6502 29.0602 44.9673 27.9346 44.2533 26.8276C44.0568 26.5251 43.8261 26.2538 43.5579 26.0138C43.374 25.8453 43.1526 25.7455 42.9 25.7269C42.8781 25.7238 42.8563 25.7269 42.8376 25.7206C42.7659 25.6988 42.6661 25.6988 42.6754 25.5896C42.6817 25.4805 42.7721 25.4712 42.8595 25.468C43.3771 25.4524 43.8978 25.4993 44.4155 25.493C44.8613 25.4868 45.3072 25.4587 45.7531 25.468C45.7999 25.468 45.8467 25.4712 45.8935 25.4774C45.9402 25.4836 45.9652 25.5148 45.9714 25.5616C45.9776 25.6052 45.9714 25.6458 45.9309 25.6738C45.909 25.6894 45.8841 25.6957 45.8591 25.705C45.5068 25.836 45.4818 25.9015 45.644 26.2445C45.9059 26.787 46.2209 27.3015 46.5171 27.8254C46.9006 28.5021 47.2936 29.1756 47.6802 29.8491C47.7083 29.8928 47.7332 29.924 47.7706 29.9801Z" fill="black"/>
    <path d="M39.0897 29.6749C39.0897 30.6197 39.0897 31.5676 39.0897 32.5125C39.0897 32.9802 39.1178 33.4448 39.1551 33.9095C39.1895 34.3335 39.3703 34.4988 39.7944 34.5206C39.9596 34.5299 40.1249 34.5518 40.2902 34.5549C40.3619 34.5549 40.4493 34.5768 40.4493 34.6703C40.4493 34.7638 40.3744 34.8044 40.2871 34.8044C39.8412 34.7982 39.3953 34.8168 38.9494 34.7888C38.5003 34.7607 38.0482 34.7638 37.596 34.795C37.2749 34.8168 36.9537 34.8044 36.6294 34.8013C36.5483 34.8013 36.4673 34.7669 36.4704 34.6671C36.4735 34.558 36.5608 34.5549 36.6387 34.5518C36.7417 34.5456 36.8445 34.5549 36.9475 34.5331C37.2749 34.4613 37.3653 34.3803 37.4183 34.0467C37.4526 33.8315 37.4807 33.6164 37.4869 33.3981C37.5462 31.0563 37.5118 28.7145 37.5212 26.3696C37.5212 26.2386 37.4745 26.2012 37.3498 26.1981C36.7884 26.195 36.2303 26.2448 35.669 26.2355C35.4632 26.2323 35.2574 26.2729 35.0516 26.2979C34.7117 26.3384 34.5028 26.5411 34.3781 26.8467C34.3469 26.9246 34.3157 26.9995 34.2876 27.0774C34.2626 27.1491 34.2097 27.1679 34.1411 27.1616C34.0725 27.1554 34.0444 27.1055 34.035 27.0462C34.0101 26.8934 34.0444 26.7469 34.0694 26.5972C34.1348 26.2417 34.2097 25.8863 34.2814 25.5308C34.3312 25.2782 34.4529 25.2471 34.6306 25.3468C34.8365 25.4622 35.0734 25.4466 35.2979 25.4716C35.5536 25.4996 35.8155 25.5058 36.0744 25.5089C37.6709 25.5121 39.2643 25.5089 40.8608 25.5121C41.2974 25.5121 41.7308 25.4871 42.158 25.3967C42.3046 25.3655 42.3918 25.4123 42.3856 25.5495C42.3638 26.0827 42.3826 26.6159 42.3357 27.1491C42.3295 27.2271 42.3077 27.2957 42.2079 27.2895C42.1206 27.2832 42.0863 27.2271 42.0738 27.146C41.999 26.6003 41.8368 26.4226 41.2849 26.3041C41.076 26.2604 40.8671 26.2262 40.6519 26.2355C40.1935 26.2511 39.7414 26.1887 39.283 26.1981C39.124 26.2012 39.0803 26.2511 39.0834 26.407C39.0928 27.4921 39.0897 28.5836 39.0897 29.6749Z" fill="black"/>
    <path d="M20.1466 9.39912C19.4356 9.40531 18.8151 9.16214 18.31 8.67568C17.7144 8.09881 17.4618 7.3785 17.5584 6.54282C17.6925 5.40779 18.5843 4.50975 19.7568 4.34448C21.1039 4.15427 22.4322 4.96812 22.7066 6.38691C22.8531 7.15087 22.6755 7.84935 22.1765 8.45429C21.6495 9.09041 20.9604 9.38044 20.1466 9.39912Z" fill="black"/>
    <path d="M48.7312 4.21033C50.1625 4.23216 51.3412 5.27676 51.3349 6.77039C51.3287 8.22036 50.1843 9.28677 48.7156 9.29616C47.2937 9.30545 46.0464 8.15487 46.1275 6.60512C46.1961 5.32976 47.2657 4.21968 48.7312 4.21033Z" fill="black"/>
    <path d="M28.1695 33.9423C28.1664 33.4747 28.2131 33.01 28.235 32.5454C28.235 32.5392 28.235 32.536 28.235 32.5298C28.2661 32.4269 28.2474 32.271 28.4095 32.2804C28.5654 32.2898 28.5406 32.4394 28.5467 32.536C28.5686 32.8791 28.6403 33.2065 28.8118 33.5027C29.0674 33.9455 29.4479 34.2137 29.9561 34.3072C30.4862 34.407 30.9945 34.3571 31.4404 34.0359C31.8365 33.7522 32.0298 33.3624 32.0111 32.8604C31.9861 32.1775 31.6119 31.7004 31.1318 31.2794C30.5268 30.7494 29.847 30.3128 29.3013 29.7141C28.7899 29.1528 28.4439 28.5136 28.422 27.7402C28.3909 26.6739 29.002 25.8569 30.0155 25.5014C30.5829 25.3018 31.166 25.2613 31.7647 25.308C32.1327 25.3361 32.4944 25.3954 32.853 25.4764C33.0931 25.5294 33.1118 25.5513 33.1025 25.7883C33.0869 26.2716 33.065 26.7518 33.0712 27.2351C33.0712 27.3006 33.0526 27.3692 33.0339 27.4346C33.0183 27.494 32.9778 27.5345 32.9091 27.5345C32.8343 27.5313 32.7969 27.4846 32.7875 27.416C32.7688 27.3037 32.7626 27.1884 32.7345 27.0792C32.5661 26.4212 32.0516 25.9941 31.3687 25.9192C30.9571 25.8725 30.5705 25.9192 30.2212 26.1469C29.7347 26.4618 29.5508 27.0543 29.7628 27.5968C29.8969 27.9399 30.1402 28.2018 30.4114 28.4388C31.0693 29.0156 31.8209 29.4802 32.4289 30.1226C33.0681 30.7992 33.4112 31.5819 33.3488 32.5174C33.2709 33.6492 32.5194 34.4787 31.5028 34.8062C31.0476 34.9527 30.5798 35.0057 30.1058 34.9932C29.5789 34.9776 29.0488 34.934 28.5529 34.7251C28.1975 34.5785 28.1695 34.5442 28.1695 34.1637C28.1695 34.0889 28.1695 34.0172 28.1695 33.9423Z" fill="black"/>
    <path d="M13.9256 13.968C13.9038 15.1217 13.0151 16.001 11.8239 15.9979C10.6359 15.9948 9.73473 15.103 9.74409 13.9337C9.75345 12.808 10.6453 11.9069 11.8582 11.9193C13.0245 11.9318 13.9131 12.8018 13.9256 13.968Z" fill="black"/>
    <path d="M59.2333 13.9648C59.2521 15.0592 58.3509 16.0009 57.1566 15.9978C55.9841 15.9947 55.0612 15.1341 55.0612 13.9585C55.0612 12.7736 55.9841 11.9224 57.1534 11.9192C58.354 11.9161 59.2552 12.8515 59.2333 13.9648Z" fill="black"/>
    <path d="M26.283 10.2946C26.1302 9.96091 26.0335 9.61168 25.9524 9.25936C25.8246 8.71678 25.7498 8.16486 25.8246 7.60669C25.9212 6.88015 26.2954 6.38124 27.0064 6.15049C27.4741 6.00081 27.945 5.88232 28.4439 5.94781C28.9677 6.0164 29.3607 6.29393 29.66 6.71176C30.0155 7.21068 30.1808 7.79379 30.3211 8.38313C30.3554 8.5328 30.3834 8.68248 30.3865 8.84463C30.2743 8.68559 30.1714 8.51721 30.0467 8.36753C29.6943 7.94346 29.2328 7.72207 28.684 7.67217C27.3494 7.5568 26.4919 8.67625 26.3329 9.72712C26.3017 9.91417 26.3017 10.1044 26.283 10.2946Z" fill="black"/>
    <path d="M38.6468 8.91525C38.6124 8.87471 38.6249 8.83729 38.6343 8.80299C38.8121 8.09516 39.0303 7.3998 39.4731 6.80421C39.788 6.38013 40.1747 6.02778 40.7266 5.98413C41.4251 5.93111 42.0986 6.04337 42.6631 6.50487C42.925 6.72002 43.0653 7.01937 43.137 7.34367C43.2773 7.95796 43.1588 8.55042 43.0029 9.14291C42.8969 9.55136 42.7441 9.94423 42.582 10.3309C42.5695 10.359 42.5664 10.3933 42.5165 10.4089C42.5289 10.253 42.5476 10.1033 42.5539 9.95361C42.5914 9.2957 42.4261 8.70633 41.9583 8.22612C41.4095 7.66172 40.5926 7.55259 39.8255 7.90494C39.3796 8.11074 39.0771 8.47558 38.7497 8.81235C38.7247 8.83729 38.7029 8.86847 38.6779 8.89654C38.6749 8.90277 38.6655 8.9059 38.6468 8.91525Z" fill="black"/>
    <path d="M47.4589 40.7317C46.985 40.7317 46.5141 40.7317 46.0401 40.7317C45.9652 40.7317 45.8749 40.7474 45.8343 40.66C45.8 40.5821 45.8624 40.5228 45.8998 40.4636C46.6544 39.2912 47.4059 38.1156 48.1636 36.9432C48.2447 36.8184 48.2135 36.7966 48.0826 36.7997C47.6429 36.8153 47.2001 36.7779 46.7604 36.8278C46.3894 36.8683 46.2147 36.993 46.1025 37.3547C46.0869 37.4046 46.0713 37.4483 46.0121 37.4389C45.9528 37.4296 45.9403 37.3797 45.9466 37.3329C45.9871 37.0554 46.0308 36.781 46.0744 36.5035C46.0869 36.4318 46.143 36.4162 46.2054 36.4256C47.1222 36.5284 48.042 36.4629 48.9588 36.4848C49.043 36.4879 49.1552 36.438 49.202 36.5315C49.2488 36.6251 49.1583 36.7031 49.1116 36.781C48.3913 37.9503 47.6273 39.0948 46.8789 40.2453C46.857 40.2797 46.8103 40.3077 46.8353 40.3545C46.857 40.3981 46.9101 40.3825 46.9475 40.3794C47.4401 40.3669 47.9329 40.4075 48.4255 40.3514C48.7467 40.3139 48.993 40.1955 49.0772 39.8555C49.0835 39.8244 49.096 39.7963 49.1084 39.7682C49.1209 39.7402 49.1365 39.709 49.1739 39.7121C49.2113 39.7152 49.2207 39.7496 49.23 39.7776C49.2861 39.9179 49.2363 40.0583 49.2082 40.1924C49.0803 40.8534 49.1645 40.7194 48.5783 40.7317C48.2073 40.738 47.8331 40.7317 47.4589 40.7317Z" fill="black"/>
    <path d="M32.7503 40.729C32.5475 40.729 32.3448 40.729 32.1422 40.729C32.0954 40.729 32.0361 40.7321 32.0299 40.6729C32.0237 40.598 32.0923 40.6011 32.1422 40.6011C32.4228 40.5918 32.5912 40.4296 32.6879 40.1865C33.1712 38.9828 33.6483 37.7791 34.1347 36.5755C34.1721 36.4851 34.1815 36.3448 34.3094 36.3448C34.4403 36.3448 34.4622 36.4851 34.4995 36.5817C34.9642 37.7293 35.4257 38.8799 35.8934 40.0305C35.9433 40.1552 36.015 40.2706 36.0899 40.3829C36.1927 40.5388 36.3518 40.5918 36.5327 40.6011C36.5763 40.6043 36.6386 40.5918 36.6386 40.6604C36.6386 40.7227 36.5825 40.729 36.5358 40.729C36.121 40.729 35.7063 40.729 35.2884 40.729C35.2448 40.729 35.2012 40.7134 35.1793 40.676C35.1481 40.623 35.2043 40.6074 35.2354 40.5824C35.2822 40.5482 35.2729 40.5013 35.2542 40.4546C35.117 40.0898 34.9798 39.7249 34.8456 39.3632C34.8176 39.2915 34.7646 39.2634 34.6867 39.2634C34.3343 39.2665 33.9788 39.2634 33.6265 39.2634C33.5579 39.2634 33.5079 39.2853 33.483 39.357C33.3738 39.6595 33.2554 39.9588 33.1524 40.2644C33.0714 40.5076 33.1369 40.6043 33.3863 40.6011C33.43 40.6011 33.4924 40.598 33.4924 40.6635C33.4924 40.7415 33.4238 40.729 33.3738 40.729C33.1681 40.729 32.9592 40.729 32.7503 40.729ZM34.1721 37.5328C34.0007 37.9974 33.8416 38.4246 33.6826 38.8519C33.6483 38.9453 33.7013 38.9485 33.7636 38.9485C34.0225 38.9485 34.2844 38.9453 34.5432 38.9485C34.6648 38.9516 34.6679 38.8986 34.6336 38.805C34.4808 38.3935 34.3343 37.9849 34.1721 37.5328Z" fill="black"/>
    <path d="M8.4686 38.5119C8.4686 39.0108 8.47171 39.5096 8.46548 40.0085C8.46548 40.1302 8.48419 40.2455 8.50602 40.364C8.5372 40.5574 8.69934 40.5667 8.84902 40.5947C8.92386 40.6072 9.06106 40.5574 9.05794 40.6572C9.05482 40.7757 8.91762 40.7227 8.83967 40.7258C8.38129 40.732 7.92603 40.7289 7.46765 40.7289C7.42088 40.7289 7.3741 40.7258 7.32733 40.7227C7.29615 40.7195 7.26809 40.7008 7.26809 40.6634C7.26809 40.626 7.29615 40.6104 7.33045 40.6041C7.44271 40.5885 7.56743 40.601 7.63915 40.4888C7.71711 40.361 7.70775 40.2113 7.71711 40.0647C7.77012 39.2758 7.7327 38.4869 7.74829 37.698C7.75453 37.4173 7.7327 37.1398 7.71399 36.8592C7.70464 36.7126 7.62668 36.6315 7.48013 36.6128C7.41464 36.6034 7.34604 36.591 7.28056 36.5817C7.24314 36.5754 7.18701 36.5848 7.18701 36.5255C7.18701 36.4756 7.23379 36.46 7.27744 36.4538C7.32421 36.4506 7.37099 36.4445 7.41776 36.4506C7.93539 36.4912 8.45301 36.4538 8.97063 36.4506C9.19514 36.4506 9.41342 36.4881 9.62858 36.5598C10.0433 36.7033 10.3115 37.1086 10.2772 37.5483C10.2273 38.2125 9.83126 38.6677 9.18267 38.8081C9.04858 38.8361 8.9145 38.8205 8.78042 38.8205C8.74301 38.8205 8.70246 38.8112 8.69934 38.7644C8.69311 38.7083 8.73676 38.6958 8.78042 38.6927C9.26686 38.6334 9.50696 38.3247 9.57557 37.8694C9.6504 37.3549 9.31988 36.722 8.6744 36.7314C8.53096 36.7345 8.47172 36.7843 8.47172 36.934C8.47172 37.4641 8.4686 37.988 8.4686 38.5119Z" fill="black"/>
    <path d="M49.969 12.5211C50.1498 12.3621 50.3245 12.1938 50.5148 12.0472C50.8858 11.7635 51.2787 11.5171 51.7714 11.5359C52.2983 11.5576 52.6787 11.8352 52.9438 12.2749C53.0623 12.4682 53.0592 12.6958 53.0062 12.9141C52.8503 13.5533 52.4448 14.0366 52.0021 14.495C52.0395 14.3079 52.1019 14.1302 52.1269 13.9431C52.2391 13.0887 51.5843 12.2935 50.5271 12.4308C50.3432 12.4525 50.1654 12.4994 49.969 12.5211Z" fill="black"/>
    <path d="M17.0032 14.5245C16.5448 14.0598 16.1177 13.5641 15.9649 12.903C15.8121 12.2326 16.364 11.7804 16.8598 11.6713C17.2995 11.5747 17.6737 11.7617 18.0354 11.9737C18.238 12.0923 18.4252 12.2388 18.5935 12.4259C18.0135 12.3729 17.4835 12.4509 17.1155 12.9498C16.7475 13.4424 16.7943 13.9725 17.0032 14.5245Z" fill="black"/>
    <path d="M62.939 56.143C61.5263 56.143 60.469 55.7617 59.767 54.999C59.065 54.2277 58.714 53.1487 58.714 51.762C58.714 50.774 58.9003 49.9507 59.273 49.292C59.6457 48.6333 60.1527 48.1393 60.794 47.81C61.444 47.472 62.1807 47.303 63.004 47.303C63.472 47.303 63.8447 47.342 64.122 47.42C64.3993 47.498 64.6203 47.576 64.785 47.654C64.9497 47.732 65.084 47.771 65.188 47.771C65.3093 47.771 65.396 47.7277 65.448 47.641C65.5087 47.5457 65.5737 47.433 65.643 47.303H66.085V50.332H65.578C65.422 49.4653 65.1273 48.8457 64.694 48.473C64.2607 48.0917 63.6973 47.901 63.004 47.901C62.12 47.901 61.444 48.226 60.976 48.876C60.5167 49.526 60.287 50.4273 60.287 51.58C60.287 52.8887 60.5253 53.868 61.002 54.518C61.4787 55.168 62.1633 55.493 63.056 55.493C63.4547 55.493 63.7883 55.441 64.057 55.337C64.3343 55.2243 64.603 55.0683 64.863 54.869V53.556C64.863 53.244 64.837 53.01 64.785 52.854C64.733 52.6893 64.6247 52.581 64.46 52.529C64.2953 52.4683 64.0483 52.438 63.719 52.438V51.97H67.073V52.438C66.709 52.438 66.4707 52.503 66.358 52.633C66.254 52.7543 66.202 53.0187 66.202 53.426V55.259C65.734 55.5277 65.253 55.7443 64.759 55.909C64.265 56.065 63.6583 56.143 62.939 56.143Z" fill="black"/>
    <path d="M55.6777 56.104H54.9107L49.6587 49.227H49.2557L48.9697 48.681C48.8137 48.4557 48.6707 48.291 48.5407 48.187C48.4194 48.0743 48.2894 48.0007 48.1507 47.966C48.0207 47.9227 47.8561 47.901 47.6567 47.901V47.459H50.1657L54.8977 53.686H54.9627V49.578C54.9627 49.1967 54.9367 48.8847 54.8847 48.642C54.8327 48.3907 54.7201 48.2043 54.5467 48.083C54.3821 47.9617 54.1091 47.901 53.7277 47.901V47.459H56.8607V47.901C56.5141 47.901 56.2541 47.966 56.0807 48.096C55.9161 48.2173 55.8077 48.4037 55.7557 48.655C55.7037 48.9063 55.6777 49.2313 55.6777 49.63V56.104ZM50.7767 56H47.6567V55.558C48.0034 55.558 48.2634 55.4973 48.4367 55.376C48.6101 55.246 48.7271 55.0467 48.7877 54.778C48.8484 54.5007 48.8787 54.1453 48.8787 53.712V48.304H49.5937V54.011C49.5937 54.4443 49.6241 54.7737 49.6847 54.999C49.7454 55.2157 49.8624 55.363 50.0357 55.441C50.2091 55.519 50.4561 55.558 50.7767 55.558V56Z" fill="black"/>
    <path d="M45.9168 56H41.9908V55.558C42.3808 55.558 42.6625 55.5277 42.8358 55.467C43.0178 55.3977 43.1305 55.272 43.1738 55.09C43.2258 54.8993 43.2518 54.6177 43.2518 54.245V49.227C43.2518 48.889 43.2302 48.6247 43.1868 48.434C43.1435 48.2347 43.0352 48.096 42.8618 48.018C42.6885 47.94 42.3982 47.901 41.9908 47.901V47.459H45.9298V47.901C45.5312 47.901 45.2408 47.94 45.0588 48.018C44.8855 48.096 44.7772 48.2347 44.7338 48.434C44.6992 48.6247 44.6818 48.889 44.6818 49.227V54.245C44.6818 54.6177 44.7035 54.8993 44.7468 55.09C44.7988 55.272 44.9115 55.3977 45.0848 55.467C45.2668 55.5277 45.5442 55.558 45.9168 55.558V56Z" fill="black"/>
    <path d="M35.5261 56H31.6001V55.558C31.9988 55.558 32.2848 55.5277 32.4581 55.467C32.6314 55.4063 32.7398 55.285 32.7831 55.103C32.8351 54.9123 32.8611 54.6263 32.8611 54.245V49.227C32.8611 48.889 32.8394 48.6247 32.7961 48.434C32.7528 48.2347 32.6444 48.096 32.4711 48.018C32.2978 47.94 32.0074 47.901 31.6001 47.901V47.459H35.5391V47.901C35.1404 47.901 34.8501 47.94 34.6681 48.018C34.4948 48.096 34.3864 48.2347 34.3431 48.434C34.3084 48.6247 34.2911 48.8933 34.2911 49.24V51.619H34.3561L36.5011 49.565C36.7871 49.2877 36.9994 49.058 37.1381 48.876C37.2854 48.694 37.3591 48.5077 37.3591 48.317C37.3591 48.1697 37.3201 48.0657 37.2421 48.005C37.1728 47.9357 37.0471 47.901 36.8651 47.901H36.6571V47.459H39.9461V47.901C39.7034 47.9097 39.4954 47.9443 39.3221 48.005C39.1574 48.0657 38.9928 48.1567 38.8281 48.278C38.6634 48.3993 38.4641 48.5683 38.2301 48.785L35.5391 51.281L39.2311 54.999C39.4478 55.1983 39.6471 55.3413 39.8291 55.428C40.0111 55.5147 40.2581 55.558 40.5701 55.558V56H36.5661V55.558H36.8001C36.9734 55.558 37.0991 55.5363 37.1771 55.493C37.2638 55.4497 37.3071 55.3803 37.3071 55.285C37.3071 55.1463 37.2464 54.9947 37.1251 54.83C37.0124 54.6567 36.8218 54.4357 36.5531 54.167C36.2931 53.8983 35.9464 53.5517 35.5131 53.127L34.3951 51.996H34.2911V54.245C34.2911 54.609 34.3128 54.8863 34.3561 55.077C34.4081 55.259 34.5208 55.3847 34.6941 55.454C34.8761 55.5233 35.1534 55.558 35.5261 55.558V56Z" fill="black"/>
    <path d="M25.8095 56H21.9095V55.558C22.2389 55.558 22.4859 55.532 22.6505 55.48C22.8239 55.428 22.9409 55.3153 23.0015 55.142C23.0622 54.9687 23.0925 54.7 23.0925 54.336V48.876C23.0925 48.6333 23.0665 48.4427 23.0145 48.304C22.9625 48.1567 22.8499 48.0527 22.6765 47.992C22.5119 47.9313 22.2562 47.901 21.9095 47.901V47.459H25.4455C26.0782 47.459 26.6502 47.524 27.1615 47.654C27.6729 47.784 28.0759 48.005 28.3705 48.317C28.6652 48.6203 28.8125 49.0493 28.8125 49.604C28.8125 50.0893 28.7042 50.4837 28.4875 50.787C28.2795 51.0817 28.0109 51.3157 27.6815 51.489C27.3609 51.6537 27.0185 51.7793 26.6545 51.866V51.918C26.8019 52.0047 26.9622 52.152 27.1355 52.36C27.3175 52.568 27.5515 52.8757 27.8375 53.283C28.1235 53.6817 28.5049 54.219 28.9815 54.895C29.1809 55.181 29.3802 55.363 29.5795 55.441C29.7875 55.519 30.0389 55.558 30.3335 55.558V56H27.9285C27.5905 55.4713 27.3089 55.0293 27.0835 54.674C26.8669 54.3187 26.6805 54.024 26.5245 53.79C26.3685 53.5473 26.2299 53.335 26.1085 53.153C25.9872 52.9623 25.8615 52.7673 25.7315 52.568C25.6015 52.3687 25.4802 52.2473 25.3675 52.204C25.2635 52.152 25.0945 52.126 24.8605 52.126H24.5225V54.349C24.5225 54.6957 24.5529 54.96 24.6135 55.142C24.6742 55.3153 24.7955 55.428 24.9775 55.48C25.1595 55.532 25.4369 55.558 25.8095 55.558V56ZM24.5225 51.58L25.0165 51.593C25.4845 51.567 25.8832 51.4933 26.2125 51.372C26.5505 51.2507 26.8105 51.0557 26.9925 50.787C27.1832 50.5097 27.2785 50.137 27.2785 49.669C27.2785 49.1577 27.1269 48.7547 26.8235 48.46C26.5202 48.1567 26.0349 48.005 25.3675 48.005C25.2289 48.005 25.0859 48.0093 24.9385 48.018C24.7999 48.018 24.6612 48.0267 24.5225 48.044V51.58Z" fill="black"/>
    <path d="M13.8455 56H11.0505V55.558C11.2845 55.558 11.4752 55.5233 11.6225 55.454C11.7699 55.376 11.9085 55.2287 12.0385 55.012C12.1685 54.7867 12.3245 54.4487 12.5065 53.998L15.2885 47.394H16.0815L19.0715 54.375C19.2622 54.7997 19.4485 55.103 19.6305 55.285C19.8125 55.467 20.0682 55.558 20.3975 55.558V56H16.6925V55.558C16.8139 55.558 16.9395 55.5493 17.0695 55.532C17.2082 55.5147 17.3209 55.4757 17.4075 55.415C17.5029 55.3457 17.5505 55.2373 17.5505 55.09C17.5505 54.9947 17.5289 54.8777 17.4855 54.739C17.4509 54.5917 17.3945 54.4227 17.3165 54.232L16.8095 53.049L16.7185 52.763L15.3145 49.11H15.2755L13.8065 52.763L13.7025 53.049L13.1305 54.427C13.0959 54.531 13.0612 54.6393 13.0265 54.752C12.9919 54.8647 12.9745 54.9817 12.9745 55.103C12.9745 55.2937 13.0439 55.4193 13.1825 55.48C13.3212 55.532 13.5422 55.558 13.8455 55.558V56ZM17.0305 53.192H13.4945L13.7025 52.62H16.8225L17.0305 53.192Z" fill="black"/>
    <path d="M7.97525 56H4.01025V55.558C4.35692 55.558 4.61259 55.5277 4.77725 55.467C4.95059 55.4063 5.05892 55.2893 5.10225 55.116C5.15425 54.934 5.18025 54.661 5.18025 54.297V48.85C5.18025 48.4513 5.09792 48.1957 4.93325 48.083C4.76859 47.9617 4.47392 47.901 4.04925 47.901V47.459H7.58525C8.00992 47.459 8.41725 47.4937 8.80725 47.563C9.20592 47.6237 9.55692 47.732 9.86025 47.888C10.1723 48.044 10.4149 48.2693 10.5883 48.564C10.7703 48.85 10.8613 49.214 10.8613 49.656C10.8613 50.1673 10.7659 50.5963 10.5753 50.943C10.3846 51.281 10.1246 51.554 9.79525 51.762C9.47459 51.97 9.10625 52.1173 8.69025 52.204C8.28292 52.2907 7.86259 52.334 7.42925 52.334C7.29059 52.334 7.14325 52.3253 6.98725 52.308C6.83125 52.282 6.70559 52.2517 6.61025 52.217V54.349C6.61025 54.7043 6.64492 54.9687 6.71425 55.142C6.78359 55.3153 6.91359 55.428 7.10425 55.48C7.30359 55.532 7.59392 55.558 7.97525 55.558V56ZM7.31225 51.736C7.76292 51.736 8.13559 51.684 8.43025 51.58C8.73359 51.4673 8.96325 51.2723 9.11925 50.995C9.27525 50.709 9.35325 50.3147 9.35325 49.812C9.35325 49.2227 9.19292 48.7763 8.87225 48.473C8.55159 48.161 8.04459 48.005 7.35125 48.005C7.22992 48.005 7.10859 48.0093 6.98725 48.018C6.87459 48.0267 6.74892 48.0397 6.61025 48.057V51.684C6.68825 51.6927 6.78792 51.7057 6.90925 51.723C7.03059 51.7317 7.16492 51.736 7.31225 51.736Z" fill="black"/>
    <path fill-rule="evenodd" clip-rule="evenodd" d="M72 44H0V43H72V44Z" fill="url(#paint0_linear_579_1912)"/>
    <defs>
        <linearGradient id="paint0_linear_579_1912" x1="0.500003" y1="43.5" x2="71.5" y2="43.5001" gradientUnits="userSpaceOnUse">
            <stop stop-opacity="0"/>
            <stop offset="0.510417"/>
            <stop offset="1" stop-opacity="0"/>
        </linearGradient>
    </defs>
</svg>